<?xml version="1.0" encoding="UTF-8"?>
<svg id="_レイヤー_1" data-name="レイヤー 1" xmlns="http://www.w3.org/2000/svg" viewBox="0 0 500 500">
  <defs>
    <style>
      .cls-1 {
        fill: #bebec6;
      }

      .cls-2 {
        fill: #ff8892;
      }

      .cls-3 {
        fill: #2f2727;
      }

      .cls-4 {
        fill: #fff;
      }

      .cls-5 {
        fill: #4a4a4d;
      }

      .cls-6 {
        fill: #ffd3d3;
      }

      .cls-7 {
        fill: #bc646b;
      }

      .cls-8 {
        fill: #939399;
      }
    </style>
  </defs>
  <path class="cls-8" d="M258.53,142.36c2.71,0,5.42,0,8.38,0,.25,0,.24,0,.24.25,0,11.51,0,22.77,0,34.01h17.31v-8.45h8.55v-8.33h8.38v17.09h-8.2v8.55h25.74v8.74h8.65v8.55h8.49c0,8.82,0,17.32-.25,25.8-2.9-.02-5.55-.02-8.43-.02v-17.31h-8.61v-8.62c-2.99,0-5.75,0-8.52-.25-.18-2.86.63-6.54-.76-7.8-1.48-1.35-5.04-.41-7.68-.46-.09,0-.18.01-.51,0-5.76-.02-11.27-.02-17.01-.02v-8.57c-5.85,0-11.47,0-17.35-.02-5.74-.02-11.23-.02-17.08-.02,0,3.06,0,5.79-.25,8.56-2.92.05-5.59.08-8.52.08-2.12-.02-3.99.11-5.83-.07-2.22-.23-2.76.73-2.62,2.74.14,1.94,0,3.9-.26,5.87-2.89.03-5.54.03-8.4.03v8.69c-2.98,0-5.73,0-8.74-.02-2.89-.02-5.53-.02-8.41-.02,0,3.12,0,5.87,0,8.6,0,0,0,0-.25,0-2.89,0-5.52,0-8.32,0,0,3.18,0,5.93-.02,8.92-.02,5.75-.02,11.26-.02,16.84,11.74,0,23.08,0,34.68.03,2.96.01,5.67,0,8.63,0,2.98.04,5.71.06,8.42.32-.03,2.94-.04,5.64-.29,8.34-8.64,0-17.03,0-25.73,0v8.41h-17.17v-8.22h-25.79v8.51h-8.75v8.65h-8.56v8.56h-8.56v8.65h-8.75v8.65h-17.17v8.56h-8.56v8.65h-8.35v17.27h8.47v8.3h8.56v-8.52h25.98v-8.65h25.79v-17.17h8.56v-17.15c3.07,0,5.83,0,8.58,0,0,0-.02-.02-.01.23,0,17.26,0,34.26,0,51.59h-8.4v34.41h8.44v17.27h8.74v8.65h8.56v8.56h8.56v8.37h25.89v-8.59h43.12v-8.56h8.56v-17.17h8.65v-17.36h8.65v-17.17h8.56v-25.79h8.65v-8.34h8.65v25.71h25.79v8.33h25.79v-8.51h8.37v-25.89h-8.47v-8.56h-8.56v-8.65h-8.75v-8.65h-8.56v-17.17h-8.56v-8.65h-17.36v-8.29h-25.79v8.19h-8.57c0-2.95,0-5.72.02-8.72.02-2.94.02-5.63.28-8.32,8.69-.01,17.12-.03,25.81-.03,2.89.02,5.53.02,8.25.02v-8.64c-2.9,0-5.64,0-8.4-.25-.05-2.93-.07-5.62.16-8.31,2.91,0,5.56,0,8.21,0v-51.76h-8.24v-16.93h8.59v8.48h8.54v60.04h25.87v-8.59h8.65v-8.55h17.17v-8.55h8.65v-8.74h8.65v-17.17h8.55v-8.54c3.07,0,5.83,0,8.58,0,0,0-.01-.01-.01-.01v25.76h-8.52v8.63h-8.63v8.63h-8.63v8.63h-17.24v8.63h-8.63v8.63h-17.15v8.53h-17.18v8.63h16.94v8.63h8.63v17.24h8.63v8.63h8.63v8.63h8.63v8.63h8.53v43.1h-8.42v8.48h-43v-8.24h-25.86v8.32h-8.63v17.24h-8.63v17.25h-8.63v17.25h-8.63v8.63h-43.1v8.54h-43.1v-8.42h-8.63v-8.63h-8.53v-8.53h-8.63v-17.24h-8.63v-51.6h-17.24v8.3h-25.86v8.5h-25.86v-8.34h-8.63v-8.63h-8.53v-17.24h8.43v-8.53h8.53v-8.63h8.63v-8.63h17.24v-8.63h8.63v-8.63h8.63v-8.63h8.63v-8.63h8.69c0-2.88,0-5.54,0-8.44,0-.25,0-.24.25-.24,5.77,0,11.28,0,17.09,0v-34.53h8.54v-8.64h8.74v-8.64h8.55v-8.54h25.86v-16.98h8.64v8.2h8.52c0-11.55,0-22.92,0-34.28,0,0-.01.01-.01.01Z"/>
  <path class="cls-8" d="M172.37,245.75c-2.76,0-5.52,0-8.52,0v-8.51h-8.62v-8.62h-8.62v-8.62h-8.62v-8.62h-17.23v-8.62h-17.23v-8.62h-8.62v-8.62h-17.23v-8.62h-8.62v-17.23h-8.61v-25.85h-8.55v-25.85h8.34v-8.62h8.62v-8.74c2.87,0,5.52,0,8.44.23.27,2.95.28,5.66.29,8.63,0,2.9,0,5.55,0,8.5h-8.7v8.55h-8.36v8.65h8.59v25.88h8.55v17.17h8.65v8.74h17.26v8.55h8.55v8.55h17.26v8.74h17.26v8.55h8.55v8.36h8.64v-25.82h8.64v-8.55h8.55v-34.13h8.34v42.94h-8.47v8.55h-8.54v43.04s0,0,.01-.01Z"/>
  <path class="cls-5" d="M422.31,73.49h17.09v8.45h8.71c0,2.88,0,5.52-.28,8.43-2.91.26-5.53.26-8.33.26,0,6.04,0,11.64-.25,17.23-2.89,0-5.54,0-8.48,0v8.54c-5.92,0-11.53,0-17.14-.25,0-5.68,0-11.12,0-16.88-3.07,0-5.82,0-8.58-.25,0-2.96,0-5.67,0-8.38-.02,0-.02.04.23.02,2.89-.02,5.53-.02,8.37-.02,0-3.12,0-5.87.25-8.63,2.87,0,5.49,0,8.39,0v-8.54Z"/>
  <path class="cls-8" d="M275.78,133.75v-8.52h8.5v-8.61h43.06v-8.69h34.54v-8.66c5.75,0,11.27,0,17.04,0,.25,0,.24,0,.24.24,0,2.9,0,5.55,0,8.49h-8.7v8.53h-34.46v8.7h-43.07v8.5c-5.94,0-11.56,0-17.18,0,0,0,.01.01.01.01Z"/>
  <path class="cls-5" d="M77.58,99.25c0-2.72-.01-5.43-.04-8.4-.02-3.01-.02-5.76-.02-8.8,5.74,0,11.24,0,17.02.28.26,2.91.26,5.53.26,8.33,6.04,0,11.64,0,17.23.25,0,8.62,0,17,0,25.67-3.07,0-5.82,0-8.82-.03-2.99,0-5.72,0-8.7,0-2.88-.03-5.52-.03-8.42-.03v-17.27h-8.52Z"/>
  <path class="cls-8" d="M180.97,107.9h25.74v8.47h34.59c0,2.96,0,5.61,0,8.51,0,.25,0,.24-.25.24-5.76,0-11.27,0-17.09,0v8.43h-8.53v-8.49h-17.33v-8.61h-17.12c0-3.06,0-5.81,0-8.56,0,0-.01.01-.01.01Z"/>
  <path class="cls-8" d="M439.49,107.86v-17.23c2.8,0,5.43,0,8.3-.02.27,25.46.29,50.94.3,76.41,0,.26-.08.52-.2,1.17-2.6,0-5.25,0-8.16,0-.25,0-.24,0-.24-.24,0-20.2,0-40.14,0-60.09Z"/>
  <path class="cls-8" d="M129.27,90.66h17.12v8.47h34.59c0,2.96,0,5.61,0,8.51,0,.25,0,.24-.24.24-14.37,0-28.49,0-42.92,0v-8.66h-8.53c0-3.07,0-5.82,0-8.57,0,0-.01.01-.01.01Z"/>
  <path class="cls-8" d="M112.02,90.65h-17.23c0-2.8,0-5.43-.02-8.3,11.36-.25,22.73-.25,34.5-.25,0,2.75,0,5.4,0,8.3,0,.25,0,.24-.24.24-5.83,0-11.42,0-17,0Z"/>
  <path class="cls-8" d="M422.05,73.46c.25,2.75.25,5.47.25,8.57-2.91,0-5.52,0-8.64,0-3.22,0-5.93,0-8.64,0,0,0,.01.01.01.01v-8.61c5.72,0,11.24,0,17.02.03Z"/>
  <path class="cls-8" d="M387.8,90.66v-8.63c5.71,0,11.22,0,16.98,0,.25,0,.25,0,.24.24,0,2.97,0,5.69.01,8.42,0,0,0-.04-.24-.04-5.83,0-11.42,0-17.01,0,0,0,.01.01.01.01Z"/>
  <path class="cls-8" d="M379.18,99.27c0-2.75,0-5.5,0-8.62,2.83,0,5.47,0,8.36,0,.25,0,.24,0,.24.24,0,2.29-.07,4.33.02,6.37.06,1.49-.47,2.08-1.99,2.02-2.22-.09-4.44-.03-6.66-.03,0,0,0,0,.01.01Z"/>
  <path class="cls-8" d="M241.3,125.13c2.75,0,5.5,0,8.62,0,0,2.83,0,5.47,0,8.36,0,.25,0,.24-.24.24-2.29,0-4.34-.06-6.38.02-1.49.06-2.08-.47-2.02-1.99.09-2.22.03-4.44.03-6.66,0,0,0,0-.01.01Z"/>
  <path class="cls-8" d="M249.91,133.74c2.75,0,5.5,0,8.62,0,0,2.83,0,5.47,0,8.36,0,.25,0,.24-.24.24-2.29,0-4.33-.07-6.37.02-1.49.06-2.08-.47-2.02-1.99.09-2.22.03-4.44.03-6.66,0,0,0,0-.01.01Z"/>
  <path class="cls-8" d="M267.16,142.36c0-2.75,0-5.5,0-8.62,2.83,0,5.47,0,8.36,0,.25,0,.24,0,.24.24,0,2.29-.07,4.33.02,6.37.06,1.49-.47,2.08-1.99,2.02-2.22-.09-4.44-.03-6.66-.03,0,0,0,0,.01.01Z"/>
  <path class="cls-1" d="M310.18,254.32v8.48h8.57v-8.19h25.79v8.29h17.36v8.65h8.56v17.17h8.56v8.65h8.75v8.65h8.56v8.56h8.47v25.89h-8.37v8.51h-25.79v-8.33h-25.79v-25.71h-8.65v8.34h-8.65v25.79h-8.56v17.17h-8.65v17.36h-8.65v17.17h-8.56v8.56h-43.12v8.59h-25.89v-8.37h-8.56v-8.56h-8.56v-8.65h-8.74v-17.27h-8.44v-34.41h8.4c0-17.32,0-34.33.25-51.58,5.77-.25,11.29-.25,16.76-.25v-8.71h-8.46v-8.34h-8.54v17.07h-8.59v17.15h-8.56v17.17h-25.79v8.65h-25.98v8.52h-8.56v-8.3h-8.47v-17.27h8.35v-8.65h8.56v-8.56h17.17v-8.65h8.75v-8.65h8.56v-8.56h8.56v-8.65h8.75v-8.51h25.79v8.22h17.17v-8.41c8.7,0,17.09,0,25.98,0,3.22-.01,5.93-.02,8.89-.02,2.96,0,5.66-.02,8.62-.02,2.94,0,5.64,0,8.59,0,2.97,0,5.68,0,8.65,0,2.94.02,5.63.02,8.58.03,2.97,0,5.69-.02,8.66-.02,2.93,0,5.61-.01,8.28-.03M267.6,400.85h8.12c0-3.16,0-5.91.04-9.16v-16.46h-42.92v17.09c2.91,0,5.66,0,8.45.49.16,2.61-.65,6.29.74,7.55,1.48,1.34,5.04.41,7.69.46.09,0,.18-.01.76.02,5.54-.01,11.07-.03,17.12,0M232.69,323.58v-8.67h-17.09v16.86h17.09v-8.19M284.39,330.46c.35.49.69,1.39,1.04,1.39,5.34.09,10.69.06,16,.06v-17.1h-17.04c0,5.12,0,10.12,0,15.64Z"/>
  <path class="cls-1" d="M249.67,133.73c.25,2.22.32,4.44.23,6.65-.06,1.52.53,2.05,2.02,1.99,2.04-.09,4.08-.02,6.38-.02.25,11.36.25,22.73.25,34.28h-8.52v-8.2h-8.64v16.98h-25.86v8.54h-8.55v8.64h-8.74v8.64h-8.54v34.53c-5.81,0-11.33,0-17.09,0-.25-14.24-.25-28.48-.25-43.04h8.54v-8.55h8.47v-42.94h-8.34v34.13h-8.55v8.55h-8.64v25.82h-8.64v-8.36h-8.55v-8.55h-17.26v-8.74h-17.26v-8.55h-8.55v-8.55h-17.26v-8.74h-8.65v-17.17h-8.55v-25.88h-8.59v-8.65h8.36v-8.55h8.7c0-2.95,0-5.6,0-8.5,2.75-.25,5.5-.25,8.52-.25v17.27c2.9,0,5.54,0,8.44.28.26,2.85.26,5.42.26,8.08h8.67v-8.29h8.57c0-8.68,0-17.05,0-25.67,5.58-.25,11.16-.25,17-.26.25,2.75.25,5.51.25,8.57h8.53v8.66c14.43,0,28.55,0,42.92,0,.25,2.75.25,5.5.25,8.56h17.12v8.61h17.33v8.49h8.53v-8.43c5.81,0,11.32,0,17.09,0,.25,2.22.32,4.44.23,6.65-.06,1.52.53,2.05,2.02,1.99,2.04-.09,4.08-.02,6.38-.02M151.06,125.12h-13.03v17.08h16.93v-17.08h-3.9Z"/>
  <path class="cls-1" d="M267.15,142.6c2.22-.25,4.44-.32,6.65-.23,1.52.06,2.05-.53,1.99-2.02-.09-2.04-.02-4.08-.02-6.38,5.62-.25,11.25-.25,17.18-.25v-8.5h43.07v-8.7h34.46v-8.53h8.7c0-2.94,0-5.59,0-8.49,2.22-.25,4.44-.32,6.65-.23,1.52.06,2.05-.53,1.99-2.02-.09-2.04-.02-4.08-.02-6.38,5.59-.25,11.18-.25,17.03-.24.24,2.71.23,5.42.21,8.36,0,.23-.06.21-.31.22-2.89.01-5.52.01-8.11.01v17.2c2.96,0,5.72,0,8.72.02,2.92,0,5.6-.03,8.28-.06h17.15v-8.54c2.94,0,5.58,0,8.48,0,.25,19.94.25,39.89.26,60.09-2.75.25-5.51.25-8.58.25v8.54h-8.55v17.17h-8.65v8.74h-8.65v8.55h-17.17v8.55h-8.65v8.59h-25.87v-60.04h-8.54v-8.48h-8.59v16.93h8.24v51.76c-2.65,0-5.3,0-8.18,0-.23,0-.24.04-.24.04v-25.82h-8.49v-8.55h-8.65v-8.74h-25.74v-8.55h8.2v-17.09h-8.38v8.33h-8.55v8.45h-17.31c0-11.24,0-22.5,0-34.01M378.74,133.81h-16.63v16.96h16.99c0-5.66,0-11.13-.36-16.96Z"/>
  <path class="cls-4" d="M241.36,194.11c2.67-.02,5.34-.05,8.52-.07,6,0,11.49,0,17.33,0v-8.54h17.09v8.57c5.74,0,11.25,0,17.03.27.27,2.89.27,5.52.27,8.27h17.18v8.62h8.61v17.31c2.88,0,5.53,0,8.43.02.25.02.26-.02.24-.02,0,2.69.02,5.38.04,8.57-.02,3.2-.05,5.9-.08,8.6-8.43.02-16.86.04-25.55.05-.25,0-.24.01-.24-.24-.03-2.97-.06-5.68-.06-8.65.02-2.92.01-5.6.02-8.53.02-2.12-.12-3.99.07-5.83.23-2.22-.73-2.76-2.74-2.62-1.94.14-3.9,0-5.87-.26-.03-2.88-.03-5.5-.03-8.35-3.15,0-5.89,0-8.63,0,0,0,.02,0,0-.25,0-2.89,0-5.53,0-8.28-3.15,0-5.9,0-8.9-.03-2.94-.01-5.63.01-8.57,0-8.62-.03-16.99-.03-25.69-.03,0,3.04,0,5.79-.25,8.56-5.73.02-11.21.02-16.99.02,0,3.1,0,5.83-.25,8.59-2.89.02-5.53.02-8.14.02v17.32c2.91,0,5.66,0,8.43.25.01,2.9,0,5.56,0,8.22h-34.43c0-5.59,0-11.09.27-16.87,2.89-.27,5.5-.27,8.34-.27v-8.63s0,0,.25,0c2.87,0,5.49,0,8.42,0v-8.56h8.48v-8.69c2.86,0,5.51,0,8.65,0,3.13,0,5.76,0,8.72,0v-8.54Z"/>
  <path class="cls-2" d="M232.64,237.21h-8.41v-17.32c2.61,0,5.25,0,8.18.01.28.01.36.08.33.33-.03,2.87-.03,5.5-.03,8.31,8.92,0,17.38,0,25.84,0,0,0-.02-.02-.02.23,0,2.89,0,5.53,0,8.46h-8.62c0,3.05,0,5.8.02,8.54.02,0,.05.03.05.03-2.73-.02-5.46-.03-8.44-.32-.25-2.89-.25-5.51-.25-8.26h-8.65Z"/>
  <path class="cls-1" d="M266.96,185.48c.26,2.76.26,5.5.26,8.56-5.84,0-11.34,0-17.08-.03-.26-2.76-.26-5.49-.26-8.55,5.85,0,11.34,0,17.08.02Z"/>
  <path class="cls-6" d="M258.55,254.34c-2.71.01-5.42.02-8.39.03-.25-2.7-.24-5.39-.21-8.34.02-.25,0-.28.23-.28,2.92.02,5.62.04,8.33.31.02,2.92.03,5.6.04,8.27Z"/>
  <path class="cls-4" d="M310.2,254.07c-2.7.26-5.38.28-8.32.03-.25-2.93-.24-5.6.02-8.3,2.95-.03,5.64-.03,8.34-.03,0,0-.01-.01-.02-.02,0,2.69,0,5.38-.03,8.32Z"/>
  <path class="cls-1" d="M215.25,211.33c.26,2.74.26,5.47.26,8.58-2.93,0-5.55,0-8.42,0-.25-2.74-.25-5.48-.25-8.6,2.89,0,5.52,0,8.41.02Z"/>
  <path class="cls-1" d="M336.29,245.72c-.23-2.72-.2-5.42-.15-8.37,2.76-.25,5.5-.25,8.4-.25v8.64c-2.72,0-5.36,0-8.25-.02Z"/>
  <path class="cls-6" d="M232.66,237.46c2.72-.25,5.46-.25,8.64-.25,0,2.74,0,5.37,0,8.23-2.71.26-5.42.28-8.38.26-.25-2.69-.24-5.35-.25-8.25Z"/>
  <path class="cls-1" d="M206.59,219.91c.25,2.73.25,5.46.25,8.63-2.84,0-5.46,0-8.32.02-.25-2.73-.25-5.47-.25-8.65,2.8,0,5.43,0,8.32,0Z"/>
  <path class="cls-1" d="M241.11,194.09c.26,2.75.26,5.48.26,8.56-2.96,0-5.58,0-8.47-.03-.24-1.97-.11-3.93-.24-5.87-.14-2.01.4-2.97,2.62-2.74,1.84.19,3.72.05,5.83.07Z"/>
  <path class="cls-1" d="M310.27,202.36c-2.73.25-5.47.25-8.66.25,0-2.75,0-5.37-.02-8.24.07-.25.16-.27.24-.26,2.65.06,6.21-.88,7.68.46,1.39,1.26.58,4.94.76,7.8Z"/>
  <path class="cls-3" d="M413.63,116.17c-2.69.27-5.36.3-8.31.06-.29-5.84-.32-11.42-.34-16.99,0,0,.05.02.08.04,2.77.02,5.52.02,8.58.02,0,5.76,0,11.19,0,16.88Z"/>
  <path class="cls-1" d="M405.29,90.68c-.26-2.7-.26-5.43-.27-8.4,2.71-.25,5.42-.25,8.39-.25.25,2.75.25,5.5.25,8.63-2.84,0-5.48,0-8.37.02Z"/>
  <path class="cls-8" d="M103.22,116.55c.25,2.71.25,5.39.25,8.32h-8.67c0-2.65,0-5.23-.01-8.05,2.72-.26,5.45-.28,8.43-.27Z"/>
  <path class="cls-5" d="M241.26,392.32h-8.42v-17.09h42.92c0,5.43,0,10.94-.27,16.73-2.88.27-5.5.27-8.4.27v8.58c-5.54.01-11.07.03-16.88-.23-.27-2.9-.27-5.52-.27-8.26h-8.68Z"/>
  <path class="cls-7" d="M310.19,228.59c0,2.68.02,5.35-.25,8.29-5.76.26-11.24.26-16.88.26,0,3.18,0,5.93-.02,8.92-.04,2.93-.05,5.62-.06,8.3-2.69,0-5.38,0-8.33-.26-.26-2.89-.26-5.5-.26-8.34-3.17,0-5.9,0-8.63,0,0,0,.02.02.01-.23,0-2.97,0-5.68,0-8.39,0,0-.02.02.23.02,2.9,0,5.54,0,8.48,0v-8.68c5.93,0,11.55,0,17.42.02,2.93.05,5.6.08,8.28.1Z"/>
  <path class="cls-3" d="M232.69,323.85v7.92h-17.09v-16.86h17.09v8.94Z"/>
  <path class="cls-3" d="M284.39,330.2c0-5.26,0-10.26,0-15.38h17.04v17.1c-5.3,0-10.65.03-16-.06-.35,0-.69-.91-1.04-1.65Z"/>
  <path class="cls-8" d="M198.22,288.85c0-5.62,0-11.25,0-17.06h8.54v8.34h8.46v8.71c-5.47,0-10.99,0-16.77,0-.25,0-.24,0-.24.01Z"/>
  <path class="cls-8" d="M267.35,400.83c-.26-2.74-.26-5.47-.26-8.6,2.9,0,5.52,0,8.38-.02.25,2.73.25,5.48.25,8.64-2.83,0-5.47,0-8.37-.02Z"/>
  <path class="cls-8" d="M241.27,392.57c2.73-.25,5.47-.25,8.66-.25,0,2.74,0,5.37.02,8.24-.07.25-.15.27-.24.26-2.65-.06-6.2.88-7.69-.46-1.39-1.26-.58-4.94-.76-7.8Z"/>
  <path class="cls-6" d="M293.23,254.36c-.24-2.69-.23-5.38.06-8.32,2.97-.24,5.67-.23,8.37-.21-.01,2.67-.02,5.34-.02,8.25-2.71.26-5.43.27-8.41.28Z"/>
  <path class="cls-2" d="M275.76,245.75h8.63c0,2.84,0,5.46,0,8.32-2.71.26-5.43.27-8.39.02-.25-2.96-.25-5.65-.25-8.34Z"/>
  <path class="cls-7" d="M275.76,245.75c0,2.68,0,5.38,0,8.31-2.7.26-5.4.28-8.35.02-.25-2.96-.25-5.65-.25-8.34,0,0-.02.02.23.01,2.97,0,5.68,0,8.39,0,0,0-.01-.01-.02-.02Z"/>
  <path class="cls-2" d="M267.17,245.75c0,2.69,0,5.38,0,8.32-2.7.26-5.41.28-8.36.29-.26-2.69-.27-5.36-.04-8.31,2.96-.28,5.68-.29,8.4-.3Z"/>
  <path class="cls-3" d="M151.32,125.12h3.63v17.08h-16.93v-17.08h13.29Z"/>
  <path class="cls-3" d="M378.92,133.99c.18,5.65.18,11.11.18,16.78h-16.99v-16.96c5.57,0,11.1,0,16.81.18Z"/>
  <path class="cls-8" d="M404.73,99.25c.27,5.56.29,11.14.34,16.96-2.73.25-5.48.25-8.45.25v-17.2c2.58,0,5.22,0,8.11-.01Z"/>
  <path class="cls-2" d="M249.86,211.23v-8.53c8.7,0,17.07,0,25.68.28.24,5.83.23,11.39.23,16.94,0,0,.02-.02-.23-.02-2.89,0-5.53,0-8.46,0v8.61h-8.55s.01.01.02-.23c0-5.73,0-11.2,0-16.91-3.08,0-5.81,0-8.58-.04-.04-.04-.11-.11-.11-.11Z"/>
  <path class="cls-2" d="M301.66,228.46h-17.17v8.68c-2.94,0-5.58,0-8.48-.25-.24-5.83-.24-11.42-.23-17,0,0-.01.01.23.02,5.74,0,11.24,0,17,0v-8.64h8.63c0,2.85,0,5.47,0,8.6,0,3.2.02,5.89.02,8.59Z"/>
  <path class="cls-7" d="M293.01,211.28c0,2.74,0,5.48,0,8.63-5.76,0-11.25,0-17,0-.25-5.55-.24-11.11-.22-16.91,2.7-.27,5.39-.29,8.33-.03.26,2.89.26,5.51.26,8.32h8.65s-.02,0-.02,0Z"/>
  <path class="cls-2" d="M301.91,245.8c-2.95,0-5.65-.01-8.6-.01-.25-2.73-.25-5.47-.25-8.65,5.64,0,11.12,0,16.84,0,.27,2.71.3,5.42.34,8.39-2.69.25-5.39.26-8.34.29Z"/>
  <path class="cls-2" d="M232.66,219.88c-.04-2.77-.04-5.51-.04-8.61,5.78,0,11.26,0,16.99-.02.25-.02.32.05.32.33,0,2.92,0,5.56,0,8.41h-17.17s-.07-.07-.11-.11Z"/>
  <path class="cls-6" d="M301.91,228.49c-.25-2.72-.26-5.42-.25-8.37,1.97-.24,3.93-.11,5.87-.24,2.01-.14,2.97.41,2.74,2.62-.19,1.84-.05,3.72-.07,5.83-2.69.23-5.37.2-8.3.15Z"/>
  <path class="cls-2" d="M293.02,211.03c-2.72.25-5.45.25-8.64.25,0-2.81,0-5.42,0-8.28,2.74-.25,5.49-.25,8.64-.25,0,2.75,0,5.39,0,8.28Z"/>
  <path class="cls-7" d="M275.53,219.9c.25,5.58.24,11.16.23,17,0,.25,0,.24-.24.24-2.88,0-5.5,0-8.39,0v8.63s.01-.01.02-.02c-2.71,0-5.44.01-8.41.05-2.95,0-5.64-.02-8.59-.03-.25-2.74-.25-5.49-.25-8.54h8.62c0-2.93,0-5.57,0-8.46,2.74-.25,5.49-.25,8.54-.25v-8.61c2.93,0,5.57,0,8.46,0Z"/>
  <path class="cls-7" d="M232.74,220.23c5.58-.24,11.12-.24,17.2-.24,0-2.85,0-5.49.03-8.37,2.76-.24,5.49-.24,8.57-.24,0,5.7,0,11.18,0,16.91-8.45.25-16.91.25-25.84.25,0-2.8,0-5.43.03-8.31Z"/>
  <path class="cls-2" d="M267.39,245.77c-.25-2.73-.25-5.47-.25-8.63,2.88,0,5.51,0,8.39,0,.25,2.71.25,5.42.25,8.39-2.71.25-5.42.25-8.39.25Z"/>
</svg>