<?xml version="1.0" encoding="UTF-8"?>
<svg id="_レイヤー_1" data-name="レイヤー 1" xmlns="http://www.w3.org/2000/svg" viewBox="0 0 750 250">
  <defs>
    <style>
      .cls-1 {
        fill: #bebec6;
      }

      .cls-2 {
        fill: #ff8892;
      }

      .cls-3 {
        fill: #2f2727;
      }

      .cls-4 {
        fill: #fff;
      }

      .cls-5 {
        fill: #4a4a4d;
      }

      .cls-6 {
        fill: #ffd3d3;
      }

      .cls-7 {
        fill: #bc646b;
      }

      .cls-8 {
        fill: #939399;
      }
    </style>
  </defs>
  <g>
    <path class="cls-8" d="M145.04,72.7c1.32,0,2.63,0,4.07,0,.12,0,.12,0,.12.12,0,5.59,0,11.06,0,16.52h8.41v-4.1h4.15v-4.05h4.07v8.3h-3.98v4.15h12.51v4.24h4.2v4.15h4.13c0,4.29,0,8.42-.12,12.54-1.41,0-2.7,0-4.09,0v-8.41h-4.19v-4.19c-1.45,0-2.79,0-4.14-.12-.09-1.39.31-3.18-.37-3.79-.72-.65-2.45-.2-3.73-.22-.04,0-.09,0-.25,0-2.8-.01-5.48-.01-8.26-.01v-4.17c-2.84,0-5.57,0-8.43,0-2.79,0-5.46,0-8.3,0,0,1.49,0,2.82-.12,4.16-1.42.02-2.72.04-4.14.04-1.03-.01-1.94.06-2.83-.04-1.08-.11-1.34.36-1.27,1.33.07.94,0,1.89-.13,2.85-1.41.01-2.69.01-4.08.01v4.22c-1.45,0-2.78,0-4.25,0-1.4,0-2.68,0-4.09,0,0,1.52,0,2.85,0,4.18,0,0,0,0-.12,0-1.4,0-2.68,0-4.04,0,0,1.55,0,2.88-.01,4.34-.01,2.8-.01,5.47-.01,8.18,5.7,0,11.22,0,16.85.01,1.44,0,2.75,0,4.19,0,1.45.02,2.78.03,4.09.16-.01,1.43-.02,2.74-.14,4.05-4.2,0-8.27,0-12.5,0v4.08h-8.34v-3.99h-12.53v4.14h-4.25v4.2h-4.16v4.16h-4.16v4.2h-4.25v4.2h-8.34v4.16h-4.16v4.2h-4.06v8.39h4.12v4.03h4.16v-4.14h12.62v-4.2h12.53v-8.34h4.16v-8.33c1.49,0,2.83,0,4.17,0,0,0,0,0,0,.11,0,8.39,0,16.65,0,25.07h-4.08v16.72h4.1v8.39h4.25v4.2h4.16v4.16h4.16v4.07h12.58v-4.18h20.95v-4.16h4.16v-8.34h4.2v-8.44h4.2v-8.34h4.16v-12.53h4.2v-4.05h4.2v12.49h12.53v4.05h12.53v-4.14h4.07v-12.58h-4.11v-4.16h-4.16v-4.2h-4.25v-4.2h-4.16v-8.34h-4.16v-4.2h-8.44v-4.03h-12.53v3.98h-4.16c0-1.43,0-2.78.01-4.24.01-1.43.01-2.74.13-4.04,4.22,0,8.32-.01,12.54-.01,1.41,0,2.69,0,4.01,0v-4.2c-1.41,0-2.74,0-4.08-.12-.02-1.43-.03-2.73.08-4.04,1.41,0,2.7,0,3.99,0v-25.15h-4.01v-8.23h4.17v4.12h4.15v29.17h12.57v-4.18h4.2v-4.15h8.34v-4.15h4.2v-4.25h4.2v-8.34h4.15v-4.15c1.49,0,2.83,0,4.17,0,0,0,0,0,0,0v12.52h-4.14v4.19h-4.19v4.19h-4.19v4.19h-8.38v4.19h-4.19v4.19h-8.33v4.15h-8.35v4.19h8.23v4.19h4.19v8.38h4.19v4.19h4.19v4.19h4.19v4.19h4.15v20.94h-4.09v4.12h-20.89v-4.01h-12.57v4.04h-4.19v8.38h-4.19v8.38h-4.19v8.38h-4.19v4.19h-20.94v4.15h-20.94v-4.09h-4.19v-4.19h-4.15v-4.15h-4.19v-8.38h-4.19v-25.07h-8.38v4.04h-12.57v4.13h-12.57v-4.05h-4.19v-4.19h-4.15v-8.38h4.09v-4.15h4.15v-4.19h4.19v-4.19h8.38v-4.19h4.19v-4.19h4.19v-4.19h4.19v-4.19h4.22c0-1.4,0-2.69,0-4.1,0-.12,0-.12.12-.12,2.8,0,5.48,0,8.31,0v-16.78h4.15v-4.2h4.24v-4.2h4.15v-4.15h12.56v-8.25h4.2v3.98h4.14c0-5.61,0-11.14,0-16.66,0,0,0,0,0,0Z"/>
    <path class="cls-8" d="M103.18,122.94c-1.34,0-2.68,0-4.14,0v-4.13h-4.19v-4.19h-4.19v-4.19h-4.19v-4.19h-8.37v-4.19h-8.37v-4.19h-4.19v-4.19h-8.37v-4.19h-4.19v-8.37h-4.19v-12.56h-4.15v-12.56h4.05v-4.19h4.19v-4.25c1.39,0,2.68,0,4.1.11.13,1.43.14,2.75.14,4.19,0,1.41,0,2.7,0,4.13h-4.23v4.16h-4.06v4.2h4.17v12.57h4.15v8.34h4.2v4.25h8.39v4.16h4.16v4.15h8.39v4.25h8.39v4.15h4.16v4.06h4.2v-12.55h4.2v-4.16h4.15v-16.59h4.05v20.87h-4.11v4.16h-4.15v20.91s0,0,0,0Z"/>
    <path class="cls-5" d="M224.62,39.24h8.3v4.11h4.23c0,1.4,0,2.68-.14,4.1-1.41.13-2.69.13-4.05.13,0,2.94,0,5.65-.12,8.37-1.41,0-2.69,0-4.12,0v4.15c-2.88,0-5.6,0-8.33-.12,0-2.76,0-5.4,0-8.2-1.49,0-2.83,0-4.17-.12,0-1.44,0-2.75,0-4.07,0,0,0,.02.11,0,1.4,0,2.69,0,4.07,0,0-1.52,0-2.85.12-4.19,1.39,0,2.67,0,4.08,0v-4.15Z"/>
    <path class="cls-8" d="M153.42,68.51v-4.14h4.13v-4.18h20.92v-4.22h16.79v-4.21c2.79,0,5.48,0,8.28,0,.12,0,.12,0,.12.12,0,1.41,0,2.69,0,4.13h-4.23v4.14h-16.74v4.23h-20.93v4.13c-2.88,0-5.62,0-8.35,0,0,0,0,0,0,0Z"/>
    <path class="cls-5" d="M57.12,51.75c0-1.32,0-2.64-.02-4.08-.01-1.46-.01-2.8-.01-4.28,2.79,0,5.46,0,8.27.14.13,1.41.13,2.69.13,4.05,2.94,0,5.65,0,8.37.12,0,4.19,0,8.26,0,12.47-1.49,0-2.83,0-4.29-.01-1.45,0-2.78,0-4.23,0-1.4-.01-2.68-.01-4.09-.01v-8.39h-4.14Z"/>
    <path class="cls-8" d="M107.36,55.95h12.5v4.11h16.81c0,1.44,0,2.73,0,4.14,0,.12,0,.12-.12.12-2.8,0-5.48,0-8.3,0v4.1h-4.15v-4.13h-8.42v-4.19h-8.32c0-1.49,0-2.82,0-4.16,0,0,0,0,0,0Z"/>
    <path class="cls-8" d="M232.97,55.94v-8.37c1.36,0,2.64,0,4.03,0,.13,12.37.14,24.75.15,37.13,0,.13-.04.25-.1.57-1.26,0-2.55,0-3.96,0-.12,0-.12,0-.12-.12,0-9.81,0-19.51,0-29.2Z"/>
    <path class="cls-8" d="M82.23,47.58h8.32v4.12h16.81c0,1.44,0,2.73,0,4.14,0,.12,0,.12-.12.12-6.98,0-13.84,0-20.85,0v-4.21h-4.14c0-1.49,0-2.83,0-4.17,0,0,0,0,0,0Z"/>
    <path class="cls-8" d="M73.86,47.57h-8.37c0-1.36,0-2.64,0-4.03,5.52-.12,11.04-.12,16.76-.12,0,1.33,0,2.62,0,4.03,0,.12,0,.12-.12.12-2.83,0-5.55,0-8.26,0Z"/>
    <path class="cls-8" d="M224.5,39.22c.12,1.34.12,2.66.12,4.16-1.41,0-2.68,0-4.2,0-1.56,0-2.88,0-4.2,0,0,0,0,0,0,0v-4.18c2.78,0,5.46,0,8.27.01Z"/>
    <path class="cls-8" d="M207.85,47.58v-4.19c2.77,0,5.45,0,8.25,0,.12,0,.12,0,.12.12,0,1.44,0,2.77,0,4.09,0,0,0-.02-.12-.02-2.83,0-5.55,0-8.26,0,0,0,0,0,0,0Z"/>
    <path class="cls-8" d="M203.66,51.76c0-1.34,0-2.67,0-4.19,1.37,0,2.66,0,4.06,0,.12,0,.12,0,.12.12,0,1.11-.03,2.11.01,3.1.03.72-.23,1.01-.97.98-1.08-.04-2.16-.01-3.23-.01,0,0,0,0,0,0Z"/>
    <path class="cls-8" d="M136.67,64.32c1.34,0,2.67,0,4.19,0,0,1.37,0,2.66,0,4.06,0,.12,0,.12-.12.12-1.11,0-2.11-.03-3.1.01-.72.03-1.01-.23-.98-.97.04-1.08.01-2.16.01-3.23,0,0,0,0,0,0Z"/>
    <path class="cls-8" d="M140.85,68.51c1.34,0,2.67,0,4.19,0,0,1.37,0,2.66,0,4.06,0,.12,0,.12-.12.12-1.11,0-2.11-.03-3.1.01-.72.03-1.01-.23-.98-.97.04-1.08.01-2.16.01-3.23,0,0,0,0,0,0Z"/>
    <path class="cls-8" d="M149.23,72.7c0-1.34,0-2.67,0-4.19,1.37,0,2.66,0,4.06,0,.12,0,.12,0,.12.12,0,1.11-.03,2.11.01,3.1.03.72-.23,1.01-.97.98-1.08-.04-2.16-.01-3.23-.01,0,0,0,0,0,0Z"/>
    <path class="cls-1" d="M170.14,127.1v4.12h4.16v-3.98h12.53v4.03h8.44v4.2h4.16v8.34h4.16v4.2h4.25v4.2h4.16v4.16h4.11v12.58h-4.07v4.14h-12.53v-4.05h-12.53v-12.49h-4.2v4.05h-4.2v12.53h-4.16v8.34h-4.2v8.44h-4.2v8.34h-4.16v4.16h-20.95v4.18h-12.58v-4.07h-4.16v-4.16h-4.16v-4.2h-4.25v-8.39h-4.1v-16.72h4.08c0-8.42,0-16.68.12-25.06,2.8-.12,5.49-.12,8.15-.12v-4.23h-4.11v-4.05h-4.15v8.29h-4.17v8.33h-4.16v8.34h-12.53v4.2h-12.62v4.14h-4.16v-4.03h-4.12v-8.39h4.06v-4.2h4.16v-4.16h8.34v-4.2h4.25v-4.2h4.16v-4.16h4.16v-4.2h4.25v-4.14h12.53v3.99h8.34v-4.08c4.23,0,8.3,0,12.63,0,1.56,0,2.88-.01,4.32-.01,1.44,0,2.75-.01,4.19,0,1.43,0,2.74,0,4.17,0,1.44,0,2.76,0,4.2,0,1.43.01,2.74,0,4.17.01,1.44,0,2.77,0,4.21,0,1.42,0,2.72,0,4.03-.01M149.45,198.3h3.94c0-1.53,0-2.87.02-4.45v-8h-20.85v8.3c1.41,0,2.75,0,4.1.24.08,1.27-.31,3.06.36,3.67.72.65,2.45.2,3.73.22.04,0,.09,0,.37.01,2.69,0,5.38-.01,8.32,0M132.48,160.75v-4.22h-8.31v8.19h8.31v-3.98M157.61,164.1c.17.24.33.67.51.68,2.6.04,5.19.03,7.77.03v-8.31h-8.28c0,2.49,0,4.92,0,7.6Z"/>
    <path class="cls-1" d="M140.74,68.51c.12,1.08.15,2.16.11,3.23-.03.74.26,1,.98.97.99-.04,1.98-.01,3.1-.01.12,5.52.12,11.04.12,16.66h-4.14v-3.98h-4.2v8.25h-12.56v4.15h-4.15v4.2h-4.24v4.2h-4.15v16.78c-2.82,0-5.5,0-8.31,0-.12-6.92-.12-13.84-.12-20.91h4.15v-4.16h4.11v-20.87h-4.05v16.59h-4.15v4.16h-4.2v12.55h-4.2v-4.06h-4.16v-4.15h-8.39v-4.25h-8.39v-4.15h-4.16v-4.16h-8.39v-4.25h-4.2v-8.34h-4.15v-12.57h-4.17v-4.2h4.06v-4.16h4.23c0-1.43,0-2.72,0-4.13,1.34-.12,2.67-.12,4.14-.12v8.39c1.41,0,2.69,0,4.1.13.13,1.38.13,2.64.13,3.93h4.21v-4.03h4.16c0-4.22,0-8.28,0-12.47,2.71-.12,5.42-.12,8.26-.13.12,1.34.12,2.68.12,4.17h4.14v4.21c7.01,0,13.87,0,20.86,0,.12,1.34.12,2.67.12,4.16h8.32v4.19h8.42v4.13h4.15v-4.1c2.83,0,5.5,0,8.3,0,.12,1.08.15,2.16.11,3.23-.03.74.26,1,.98.97.99-.04,1.98-.01,3.1-.01M92.82,64.32h-6.33v8.3h8.23v-8.3h-1.89Z"/>
    <path class="cls-1" d="M149.23,72.82c1.08-.12,2.16-.15,3.23-.11.74.03,1-.26.97-.98-.04-.99-.01-1.98-.01-3.1,2.73-.12,5.46-.12,8.35-.12v-4.13h20.93v-4.23h16.74v-4.14h4.23c0-1.43,0-2.72,0-4.13,1.08-.12,2.16-.15,3.23-.11.74.03,1-.26.97-.98-.04-.99-.01-1.98-.01-3.1,2.72-.12,5.43-.12,8.28-.12.12,1.32.11,2.63.1,4.06,0,.11-.03.1-.15.11-1.4,0-2.68,0-3.94,0v8.36c1.44,0,2.78,0,4.24,0,1.42,0,2.72-.02,4.02-.03h8.33v-4.15c1.43,0,2.71,0,4.12,0,.12,9.69.12,19.38.12,29.2-1.34.12-2.68.12-4.17.12v4.15h-4.15v8.34h-4.2v4.25h-4.2v4.15h-8.34v4.15h-4.2v4.18h-12.57v-29.17h-4.15v-4.12h-4.17v8.23h4.01v25.15c-1.29,0-2.57,0-3.98,0-.11,0-.12.02-.12.02v-12.55h-4.13v-4.15h-4.2v-4.24h-12.51v-4.15h3.98v-8.3h-4.07v4.05h-4.15v4.1h-8.41c0-5.46,0-10.93,0-16.52M203.45,68.54h-8.08v8.24h8.26c0-2.75,0-5.41-.17-8.24Z"/>
    <path class="cls-4" d="M136.7,97.84c1.3-.01,2.6-.02,4.14-.04,2.91,0,5.58,0,8.42,0v-4.15h8.31v4.17c2.79,0,5.47,0,8.27.13.13,1.41.13,2.68.13,4.02h8.35v4.19h4.19v8.41c1.4,0,2.68,0,4.09,0,.12,0,.13-.01.12,0,0,1.31,0,2.61.02,4.16-.01,1.56-.03,2.87-.04,4.18-4.1,0-8.19.02-12.41.03-.12,0-.11,0-.12-.12-.02-1.44-.03-2.76-.03-4.2.01-1.42,0-2.72,0-4.15,0-1.03-.06-1.94.03-2.83.11-1.08-.35-1.34-1.33-1.27-.94.07-1.89,0-2.85-.12-.01-1.4-.01-2.67-.01-4.06-1.53,0-2.86,0-4.19,0,0,0,0,0,0-.12,0-1.4,0-2.69,0-4.02-1.53,0-2.87,0-4.32-.02-1.43,0-2.73,0-4.16,0-4.19-.02-8.25-.02-12.48-.02,0,1.48,0,2.81-.12,4.16-2.78.01-5.45.01-8.26.01,0,1.51,0,2.83-.12,4.18-1.4.01-2.69.01-3.96.01v8.42c1.41,0,2.75,0,4.09.12,0,1.41,0,2.7,0,3.99h-16.73c0-2.71,0-5.39.13-8.2,1.4-.13,2.67-.13,4.05-.13v-4.19s0,0,.12,0c1.4,0,2.67,0,4.09,0v-4.16h4.12v-4.22c1.39,0,2.68,0,4.2,0,1.52,0,2.8,0,4.23,0v-4.15Z"/>
    <path class="cls-2" d="M132.46,118.79h-4.09v-8.42c1.27,0,2.55,0,3.97,0,.14,0,.17.04.16.16-.01,1.4-.01,2.67-.01,4.04,4.34,0,8.45,0,12.55,0,0,0-.01-.01,0,.11,0,1.41,0,2.69,0,4.11h-4.19c0,1.48,0,2.82.01,4.15.01,0,.02.01.02.01-1.33,0-2.65-.02-4.1-.15-.12-1.4-.12-2.68-.12-4.01h-4.2Z"/>
    <path class="cls-1" d="M149.14,93.65c.12,1.34.12,2.67.12,4.16-2.84,0-5.51,0-8.3-.01-.12-1.34-.12-2.67-.12-4.16,2.84,0,5.51,0,8.3,0Z"/>
    <path class="cls-6" d="M145.05,127.11c-1.32,0-2.63.01-4.07.02-.12-1.31-.12-2.62-.1-4.05.01-.12,0-.14.11-.13,1.42.01,2.73.02,4.05.15.01,1.42.02,2.72.02,4.02Z"/>
    <path class="cls-4" d="M170.15,126.98c-1.31.13-2.61.13-4.04.01-.12-1.42-.12-2.72,0-4.03,1.43-.01,2.74-.02,4.05-.02,0,0,0,0,0,0,0,1.31,0,2.61-.01,4.04Z"/>
    <path class="cls-1" d="M124.01,106.21c.12,1.33.12,2.66.12,4.17-1.42,0-2.7,0-4.09,0-.12-1.33-.12-2.66-.12-4.18,1.4,0,2.68,0,4.09,0Z"/>
    <path class="cls-1" d="M182.82,122.92c-.11-1.32-.1-2.63-.07-4.07,1.34-.12,2.67-.12,4.08-.12v4.2c-1.32,0-2.6,0-4.01,0Z"/>
    <path class="cls-6" d="M132.47,118.9c1.32-.12,2.65-.12,4.2-.12,0,1.33,0,2.61,0,4-1.32.13-2.63.13-4.07.13-.12-1.31-.12-2.6-.12-4.01Z"/>
    <path class="cls-1" d="M119.8,110.38c.12,1.33.12,2.66.12,4.19-1.38,0-2.65,0-4.04.01-.12-1.32-.12-2.66-.12-4.2,1.36,0,2.64,0,4.04,0Z"/>
    <path class="cls-1" d="M136.58,97.84c.12,1.34.12,2.66.12,4.16-1.44,0-2.71,0-4.11-.01-.12-.96-.05-1.91-.12-2.85-.07-.98.19-1.44,1.27-1.33.9.09,1.81.02,2.83.04Z"/>
    <path class="cls-1" d="M170.18,101.85c-1.32.12-2.66.12-4.21.12,0-1.33,0-2.61-.01-4.01.03-.12.08-.13.12-.13,1.29.03,3.02-.43,3.73.22.67.61.28,2.4.37,3.79Z"/>
    <path class="cls-3" d="M220.4,59.97c-1.3.13-2.61.15-4.04.03-.14-2.84-.15-5.55-.16-8.26,0,0,.03.01.04.02,1.35,0,2.68,0,4.17,0,0,2.8,0,5.44,0,8.2Z"/>
    <path class="cls-1" d="M216.35,47.59c-.12-1.31-.13-2.64-.13-4.08,1.32-.12,2.64-.12,4.08-.12.12,1.34.12,2.67.12,4.19-1.38,0-2.67,0-4.07,0Z"/>
    <path class="cls-8" d="M69.58,60.16c.12,1.32.12,2.62.12,4.04h-4.21c0-1.29,0-2.54,0-3.91,1.32-.13,2.65-.14,4.1-.13Z"/>
    <path class="cls-5" d="M136.65,194.15h-4.09v-8.3h20.85c0,2.64,0,5.32-.13,8.13-1.4.13-2.67.13-4.08.13v4.17c-2.69,0-5.38.01-8.2-.11-.13-1.41-.13-2.68-.13-4.01h-4.22Z"/>
    <path class="cls-7" d="M170.14,114.6c0,1.3,0,2.6-.12,4.03-2.8.12-5.46.12-8.2.12,0,1.55,0,2.88-.01,4.33-.02,1.42-.02,2.73-.03,4.03-1.31,0-2.62,0-4.05-.13-.12-1.4-.12-2.67-.12-4.05-1.54,0-2.87,0-4.19,0,0,0,0,0,0-.11,0-1.44,0-2.76,0-4.07,0,0,0,0,.11,0,1.41,0,2.69,0,4.12,0v-4.22c2.88,0,5.61,0,8.47.01,1.42.02,2.72.04,4.02.05Z"/>
    <path class="cls-3" d="M132.48,160.88v3.85h-8.31v-8.19h8.31v4.35Z"/>
    <path class="cls-3" d="M157.61,163.97c0-2.56,0-4.98,0-7.47h8.28v8.31c-2.58,0-5.18.01-7.77-.03-.17,0-.34-.44-.51-.8Z"/>
    <path class="cls-8" d="M115.74,143.88c0-2.73,0-5.47,0-8.29h4.15v4.05h4.11v4.23c-2.66,0-5.34,0-8.15,0-.12,0-.12,0-.11,0Z"/>
    <path class="cls-8" d="M149.32,198.29c-.12-1.33-.12-2.66-.12-4.18,1.41,0,2.68,0,4.07-.01.12,1.33.12,2.66.12,4.2-1.37,0-2.66,0-4.07,0Z"/>
    <path class="cls-8" d="M136.66,194.27c1.33-.12,2.66-.12,4.21-.12,0,1.33,0,2.61.01,4-.03.12-.07.13-.12.13-1.29-.03-3.01.43-3.73-.22-.67-.61-.28-2.4-.37-3.79Z"/>
    <path class="cls-6" d="M161.9,127.12c-.12-1.31-.11-2.61.03-4.04,1.44-.12,2.76-.11,4.07-.1,0,1.3-.01,2.59-.01,4.01-1.32.13-2.64.13-4.08.14Z"/>
    <path class="cls-2" d="M153.41,122.93h4.2c0,1.38,0,2.65,0,4.04-1.32.13-2.64.13-4.08.01-.12-1.44-.12-2.75-.12-4.05Z"/>
    <path class="cls-7" d="M153.42,122.94c0,1.3,0,2.61,0,4.04-1.31.13-2.62.13-4.06.01-.12-1.44-.12-2.75-.12-4.05,0,0,0,0,.11,0,1.44,0,2.76,0,4.08,0,0,0,0,0,0,0Z"/>
    <path class="cls-2" d="M149.24,122.93c0,1.31,0,2.62,0,4.04-1.31.13-2.63.14-4.06.14-.13-1.31-.13-2.61-.02-4.04,1.44-.14,2.76-.14,4.08-.15Z"/>
    <path class="cls-3" d="M92.95,64.32h1.77v8.3h-8.23v-8.3h6.46Z"/>
    <path class="cls-3" d="M203.54,68.63c.09,2.74.09,5.4.09,8.15h-8.26v-8.24c2.71,0,5.39,0,8.17.09Z"/>
    <path class="cls-8" d="M216.08,51.75c.13,2.7.14,5.41.17,8.24-1.33.12-2.66.12-4.1.12v-8.36c1.25,0,2.54,0,3.94,0Z"/>
    <path class="cls-2" d="M140.83,106.16v-4.15c4.23,0,8.29,0,12.48.13.11,2.83.11,5.54.11,8.23,0,0,.01-.01-.11,0-1.41,0-2.69,0-4.11,0v4.18h-4.15s0,0,0-.11c0-2.78,0-5.44,0-8.21-1.5,0-2.82,0-4.17-.02-.02-.02-.05-.05-.05-.05Z"/>
    <path class="cls-2" d="M166,114.53h-8.34v4.22c-1.43,0-2.71,0-4.12-.12-.12-2.83-.12-5.55-.11-8.26,0,0,0,0,.11,0,2.79,0,5.46,0,8.26,0v-4.2h4.19c0,1.38,0,2.66,0,4.18,0,1.55,0,2.86.01,4.17Z"/>
    <path class="cls-7" d="M161.8,106.19c0,1.33,0,2.66,0,4.19-2.8,0-5.47,0-8.26,0-.12-2.7-.12-5.4-.11-8.22,1.31-.13,2.62-.14,4.05-.02.12,1.41.12,2.68.12,4.04h4.2s0,0,0,0Z"/>
    <path class="cls-2" d="M166.12,122.96c-1.43,0-2.74,0-4.18,0-.12-1.33-.12-2.66-.12-4.21,2.74,0,5.4,0,8.18,0,.13,1.32.15,2.64.16,4.08-1.31.12-2.62.12-4.05.14Z"/>
    <path class="cls-2" d="M132.47,110.37c-.02-1.35-.02-2.68-.02-4.18,2.81,0,5.47,0,8.26-.01.12-.01.15.02.16.16,0,1.42,0,2.7,0,4.09h-8.34s-.04-.03-.05-.05Z"/>
    <path class="cls-6" d="M166.12,114.55c-.12-1.32-.13-2.63-.12-4.07.96-.12,1.91-.05,2.85-.12.98-.07,1.44.2,1.33,1.27-.09.9-.02,1.81-.03,2.83-1.31.11-2.61.1-4.03.07Z"/>
    <path class="cls-2" d="M161.8,106.07c-1.32.12-2.65.12-4.2.12,0-1.36,0-2.63,0-4.02,1.33-.12,2.67-.12,4.2-.12,0,1.34,0,2.62,0,4.02Z"/>
    <path class="cls-7" d="M153.3,110.37c.12,2.71.12,5.42.11,8.26,0,.12,0,.12-.12.12-1.4,0-2.67,0-4.07,0v4.2s0,0,0,0c-1.32,0-2.64,0-4.09.02-1.43,0-2.74,0-4.17-.02-.12-1.33-.12-2.67-.12-4.15h4.19c0-1.42,0-2.7,0-4.11,1.33-.12,2.67-.12,4.15-.12v-4.18c1.42,0,2.71,0,4.11,0Z"/>
    <path class="cls-7" d="M132.51,110.54c2.71-.12,5.4-.12,8.36-.12,0-1.39,0-2.67.01-4.07,1.34-.12,2.67-.12,4.16-.12,0,2.77,0,5.43,0,8.22-4.11.12-8.22.12-12.55.12,0-1.36,0-2.64.01-4.04Z"/>
    <path class="cls-2" d="M149.35,122.94c-.12-1.33-.12-2.66-.12-4.19,1.4,0,2.68,0,4.08,0,.12,1.32.12,2.63.12,4.08-1.32.12-2.63.12-4.08.12Z"/>
  </g>
  <g>
    <path d="M269.48,173.3v-108.85h12.13v12.05h12.05v-12.05h12.13v108.85h-12.13v-48.36h-12.05v48.36h-12.13Z"/>
    <path d="M317.92,136.99v-36.31h12.13v36.31h-12.13ZM317.92,173.3h24.18v12.05h-24.18v-12.05ZM330.04,149.12v-12.13h12.05v-36.31h12.13v72.61h-12.13v-24.18h-12.05Z"/>
    <path d="M366.35,173.3v-72.61h24.18v12.12h-12.05v60.49h-12.13ZM390.53,173.3v-60.49h12.13v60.49h-12.13Z"/>
    <path d="M414.78,161.17v-48.36h12.13v48.36h-12.13ZM426.9,173.3v-12.13h12.05v-48.36h-12.05v-12.12h12.05v-36.24h12.13v108.85h-24.18Z"/>
    <path d="M463.21,173.3v-108.85h12.13v48.36h12.05v-48.36h12.13v108.85h-12.13v-48.36h-12.05v48.36h-12.13Z"/>
    <path d="M511.64,161.17v-48.36h12.13v48.36h-12.13ZM523.76,112.81v-12.12h12.05v12.12h-12.05ZM523.76,173.3v-12.13h12.05v12.13h-12.05ZM535.82,161.17v-48.36h12.13v48.36h-12.13Z"/>
    <path d="M560.07,173.3v-72.61h12.13v60.49h12.05v-60.49h12.13v72.61h-36.31Z"/>
    <path d="M608.5,173.3v-72.61h24.18v12.12h-12.05v60.49h-12.13ZM632.68,173.3v-60.49h12.13v60.49h-12.13Z"/>
    <path d="M656.93,161.17v-48.36h12.13v48.36h-12.13ZM669.06,173.3v-12.13h12.05v-48.36h-12.05v-12.12h12.05v-36.24h12.13v108.85h-24.18Z"/>
  </g>
</svg>