<?xml version="1.0" encoding="UTF-8"?>
<svg id="_レイヤー_1" xmlns="http://www.w3.org/2000/svg" version="1.1" viewBox="0 0 50 50">
  <!-- Generator: Adobe Illustrator 29.6.1, SVG Export Plug-In . SVG Version: 2.1.1 Build 9)  -->
  <defs>
    <style>
      .st0 {
        fill: #fff;
      }

      .st1 {
        fill: #65735c;
      }
    </style>
  </defs>
  <rect class="st1" width="50" height="50"/>
  <g>
    <g>
      <rect class="st0" x="28.9" y="11.9" width="5.6" height="1.9"/>
      <rect class="st0" x="34.5" y="13.8" width="1.9" height="1.9"/>
      <rect class="st0" x="19.2" y="10" width="9.4" height="1.9"/>
      <rect class="st0" x="13.6" y="11.9" width="5.6" height="1.9"/>
      <rect class="st0" x="36.4" y="15.6" width="1.9" height="9.4"/>
      <rect class="st0" x="11.7" y="13.8" width="1.9" height="1.9"/>
      <rect class="st0" x="32.6" y="19.4" width="1.9" height="1.9"/>
      <rect class="st0" x="40.1" y="19.4" width="1.9" height="1.9"/>
      <rect class="st0" x="34.5" y="21.3" width="1.9" height="1.9"/>
      <rect class="st0" x="38.3" y="21.3" width="1.9" height="1.9"/>
    </g>
    <g>
      <rect class="st0" x="15.5" y="36.2" width="5.6" height="1.9"/>
      <rect class="st0" x="13.6" y="34.4" width="1.9" height="1.9"/>
      <rect class="st0" x="21.4" y="38.1" width="9.4" height="1.9"/>
      <rect class="st0" x="30.8" y="36.2" width="5.6" height="1.9"/>
      <rect class="st0" x="11.7" y="25" width="1.9" height="9.4"/>
      <rect class="st0" x="36.4" y="34.4" width="1.9" height="1.9"/>
      <rect class="st0" x="15.5" y="28.7" width="1.9" height="1.9"/>
      <rect class="st0" x="8" y="28.7" width="1.9" height="1.9"/>
      <rect class="st0" x="13.6" y="26.9" width="1.9" height="1.9"/>
      <rect class="st0" x="9.9" y="26.9" width="1.9" height="1.9"/>
    </g>
  </g>
</svg>